<svg id="Layer_1" data-name="Layer 1" xmlns="http://www.w3.org/2000/svg" viewBox="0 0 1024 534"><defs><style>.cls-1{fill:#fff;}</style></defs><title>moda-text-white</title><circle class="cls-1" cx="133.97" cy="411.88" r="31.31"/><circle class="cls-1" cx="260.25" cy="411.88" r="31.31"/><circle class="cls-1" cx="386.55" cy="411.88" r="31.31"/><path class="cls-1" d="M430.53,90.82c-62.64,0-96,43.36-96,97.07,0,52.87,30.35,96.8,93.22,96.8,64,0,95.73-44.2,95.73-97.09C523.52,131.77,489.34,90.82,430.53,90.82Zm-1.06,154.26c-27.14,0-38.55-23.87-38.55-58,0-34.69,11.41-56.68,38-56.68,28.47,0,38.51,23.59,38.51,57.77C467.41,219.88,457.9,245.08,429.47,245.08Z"/><circle class="cls-1" cx="512.83" cy="411.88" r="31.31"/><path class="cls-1" d="M228,94.36h76.45V281.14H251.85v-61c0-29,.82-66.71,1.64-89h-1.64c-7.6,40.11-20.35,95.44-33.89,149.93H174.05C163.48,228.28,151,172.69,143.94,131.21H142c1.64,22,2.76,58.58,2.76,90.57v59.36H96V94.36h78.87c9.22,37.94,19.76,92.71,24.11,120.36h.84C204.67,184.64,217.17,135,228,94.36Z"/><circle class="cls-1" cx="639.1" cy="411.87" r="31.31"/><circle class="cls-1" cx="891.69" cy="411.88" r="31.31"/><path class="cls-1" d="M866.78,94.36H796L736.88,281.14H790l10.86-36.31h58.56l11.39,36.31H928ZM810.09,204.17c7.32-26.86,14.64-53.42,19-73.49h.84c4,18.16,11.37,44.2,20,73.49Z"/><circle class="cls-1" cx="765.41" cy="411.88" r="31.31"/><path class="cls-1" d="M633.84,94.36H553.62V281.14H633c61.28,0,94.64-41.46,94.64-95.42C727.68,132.05,693.22,94.36,633.84,94.36Zm-4.29,147.22H608.38V133.93H630c29.84,0,41.21,20.89,41.21,51.79C671.25,220.68,659.06,241.58,629.55,241.58Z"/></svg>