<svg id="Layer_1" data-name="Layer 1" xmlns="http://www.w3.org/2000/svg" viewBox="0 0 1024 1024"><defs><style>.cls-1{fill:#fff;}</style></defs><title>moda-transparent-cutout</title><circle cx="323.37" cy="758.52" r="16"/><circle cx="387.91" cy="758.52" r="16"/><path d="M410.5,596.24V691.7H383.62V660.54c0-14.84.42-34.09.83-45.46h-.83c-3.88,20.5-10.4,48.77-17.32,76.62H343.86c-5.41-27-11.79-55.42-15.39-76.62h-1c.83,11.23,1.4,29.93,1.4,46.28V691.7H304V596.24h40.31c4.72,19.39,10.11,47.38,12.33,61.51H357c2.49-15.37,8.87-40.73,14.41-61.51Z"/><circle cx="452.46" cy="758.52" r="16"/><path d="M474.94,594.43c-32,0-49.05,22.17-49.05,49.61,0,27,15.51,49.47,47.65,49.47,32.71,0,48.93-22.59,48.93-49.61C522.47,615.36,505,594.43,474.94,594.43Zm-.55,78.85c-13.87,0-19.69-12.2-19.69-29.66,0-17.73,5.82-29,19.41-29,14.54,0,19.67,12.06,19.67,29.52C493.78,660.4,488.93,673.28,474.39,673.28Z"/><path d="M512.32,533h-.64l.51-.08Z"/><circle cx="517" cy="758.52" r="16"/><circle cx="581.54" cy="758.52" r="16"/><path d="M600,443.55l-20.32,55.8h-69a14.58,14.58,0,0,0,6.06-7.46L542,422.44l52.46,19.1Z"/><path d="M578.85,596.24h-41V691.7h40.6c31.32,0,48.37-21.19,48.37-48.77C626.81,615.5,609.2,596.24,578.85,596.24Zm-2.2,75.24H565.83v-55h11.08c15.25,0,21.06,10.67,21.06,26.46C598,660.8,591.74,671.48,576.65,671.48Z"/><circle cx="646.09" cy="758.52" r="16"/><circle cx="710.63" cy="758.52" r="16"/><path d="M697.89,596.24H661.72L631.51,691.7h27.16l5.54-18.56h29.93L700,691.7h29.22Zm-29,56.12c3.74-13.73,7.47-27.3,9.69-37.56h.43c2.06,9.29,5.81,22.59,10.24,37.56Z"/><path d="M0,0V1024H1024V0ZM962.48,831.23A34.77,34.77,0,0,1,927.71,866h0a34.78,34.78,0,0,1-34.78-34.77V306.16c0-47.69-66.75-86.35-114.45-86.35-23.86,0-73.54,9.66-89.18,25.29a87.2,87.2,0,0,0-14.19,18.69l7.78,2.83A78.87,78.87,0,0,1,730,367.72L701.19,447A31.42,31.42,0,0,1,664,466.69c-1-.26-2-.58-3.07-.94l-33.25-12.1-16.62,45.7H780.81a36.79,36.79,0,0,1,36.79,36.79V829.22A36.79,36.79,0,0,1,780.81,866H243.19a36.79,36.79,0,0,1-36.79-36.78V536.14a36.79,36.79,0,0,1,36.79-36.79h52.24a31.36,31.36,0,0,1-26.71-31V384a78.87,78.87,0,0,1,78.86-78.87H360a85.94,85.94,0,0,0-25.26-60c-15.65-15.63-65.32-25.29-89.18-25.29-47.68,0-114.45,38.66-114.45,86.35V831.23a34.78,34.78,0,0,1-69.56,0V313.92c0-86.12,97.89-155.92,184-155.92,43,0,110.13,17.45,138.36,45.66a155.35,155.35,0,0,1,45.42,101.43H442a79.14,79.14,0,0,1,17.87,2l-16.7,45.93a53.93,53.93,0,0,0,32.19,69.05l10.11,3.68-17.59,48.33a36.94,36.94,0,0,0-2.24,12.73,36.32,36.32,0,0,0,2.19,12.5H495a1.25,1.25,0,0,1-.18-.11A14.79,14.79,0,0,1,489,481.81l25.29-69.46L483,401a31.4,31.4,0,0,1-18.77-40.24l16.53-45.44,12.31-33.84a78.79,78.79,0,0,1,101.09-47.13L612.52,241a155.15,155.15,0,0,1,27.59-37.34C668.31,175.45,735.4,158,778.47,158c86.1,0,184,69.8,184,155.92Z"/><path d="M512.32,533h-.64l.51-.08Z"/><path class="cls-1" d="M512.19,532.92l-.51.08h.64Zm0,0-.51.08h.64Z"/><path class="cls-1" d="M512.19,532.92l-.51.08h.64Z"/></svg>