<svg id="Layer_1" data-name="Layer 1" xmlns="http://www.w3.org/2000/svg" viewBox="0 0 1024 1024"><defs><style>.cls-1{fill:#fff;}</style></defs><title>moda-transparent-white-text</title><path class="cls-1" d="M474.11,614.66c-13.59,0-19.41,11.23-19.41,29,0,17.46,5.82,29.66,19.69,29.66,14.54,0,19.39-12.88,19.39-29.1C493.78,626.72,488.65,614.66,474.11,614.66Zm102.8,1.81H565.83v55h10.82c15.09,0,21.32-10.68,21.32-28.55C598,627.14,592.16,616.47,576.91,616.47Zm-102.8-1.81c-13.59,0-19.41,11.23-19.41,29,0,17.46,5.82,29.66,19.69,29.66,14.54,0,19.39-12.88,19.39-29.1C493.78,626.72,488.65,614.66,474.11,614.66Zm102.8,1.81H565.83v55h10.82c15.09,0,21.32-10.68,21.32-28.55C598,627.14,592.16,616.47,576.91,616.47Zm-102.8-1.81c-13.59,0-19.41,11.23-19.41,29,0,17.46,5.82,29.66,19.69,29.66,14.54,0,19.39-12.88,19.39-29.1C493.78,626.72,488.65,614.66,474.11,614.66Zm102.8,1.81H565.83v55h10.82c15.09,0,21.32-10.68,21.32-28.55C598,627.14,592.16,616.47,576.91,616.47Zm102.14-1.67h-.43c-2.22,10.26-6,23.83-9.69,37.56h20.36C684.86,637.39,681.11,624.09,679.05,614.8Zm0,0h-.43c-2.22,10.26-6,23.83-9.69,37.56h20.36C684.86,637.39,681.11,624.09,679.05,614.8Zm-204.94-.14c-13.59,0-19.41,11.23-19.41,29,0,17.46,5.82,29.66,19.69,29.66,14.54,0,19.39-12.88,19.39-29.1C493.78,626.72,488.65,614.66,474.11,614.66Zm102.8,1.81H565.83v55h10.82c15.09,0,21.32-10.68,21.32-28.55C598,627.14,592.16,616.47,576.91,616.47Zm-102.8-1.81c-13.59,0-19.41,11.23-19.41,29,0,17.46,5.82,29.66,19.69,29.66,14.54,0,19.39-12.88,19.39-29.1C493.78,626.72,488.65,614.66,474.11,614.66Zm102.8,1.81H565.83v55h10.82c15.09,0,21.32-10.68,21.32-28.55C598,627.14,592.16,616.47,576.91,616.47Zm102.14-1.67h-.43c-2.22,10.26-6,23.83-9.69,37.56h20.36C684.86,637.39,681.11,624.09,679.05,614.8Zm0,0h-.43c-2.22,10.26-6,23.83-9.69,37.56h20.36C684.86,637.39,681.11,624.09,679.05,614.8Zm-204.94-.14c-13.59,0-19.41,11.23-19.41,29,0,17.46,5.82,29.66,19.69,29.66,14.54,0,19.39-12.88,19.39-29.1C493.78,626.72,488.65,614.66,474.11,614.66Zm102.8,1.81H565.83v55h10.82c15.09,0,21.32-10.68,21.32-28.55C598,627.14,592.16,616.47,576.91,616.47Zm-102.8-1.81c-13.59,0-19.41,11.23-19.41,29,0,17.46,5.82,29.66,19.69,29.66,14.54,0,19.39-12.88,19.39-29.1C493.78,626.72,488.65,614.66,474.11,614.66Zm102.8,1.81H565.83v55h10.82c15.09,0,21.32-10.68,21.32-28.55C598,627.14,592.16,616.47,576.91,616.47Zm102.14-1.67h-.43c-2.22,10.26-6,23.83-9.69,37.56h20.36C684.86,637.39,681.11,624.09,679.05,614.8Zm0,0h-.43c-2.22,10.26-6,23.83-9.69,37.56h20.36C684.86,637.39,681.11,624.09,679.05,614.8Zm-204.94-.14c-13.59,0-19.41,11.23-19.41,29,0,17.46,5.82,29.66,19.69,29.66,14.54,0,19.39-12.88,19.39-29.1C493.78,626.72,488.65,614.66,474.11,614.66Zm102.8,1.81H565.83v55h10.82c15.09,0,21.32-10.68,21.32-28.55C598,627.14,592.16,616.47,576.91,616.47Zm-102.8-1.81c-13.59,0-19.41,11.23-19.41,29,0,17.46,5.82,29.66,19.69,29.66,14.54,0,19.39-12.88,19.39-29.1C493.78,626.72,488.65,614.66,474.11,614.66Zm102.8,1.81H565.83v55h10.82c15.09,0,21.32-10.68,21.32-28.55C598,627.14,592.16,616.47,576.91,616.47Zm102.14-1.67h-.43c-2.22,10.26-6,23.83-9.69,37.56h20.36C684.86,637.39,681.11,624.09,679.05,614.8Zm0,0h-.43c-2.22,10.26-6,23.83-9.69,37.56h20.36C684.86,637.39,681.11,624.09,679.05,614.8Zm-204.94-.14c-13.59,0-19.41,11.23-19.41,29,0,17.46,5.82,29.66,19.69,29.66,14.54,0,19.39-12.88,19.39-29.1C493.78,626.72,488.65,614.66,474.11,614.66Zm102.8,1.81H565.83v55h10.82c15.09,0,21.32-10.68,21.32-28.55C598,627.14,592.16,616.47,576.91,616.47Zm-102.8-1.81c-13.59,0-19.41,11.23-19.41,29,0,17.46,5.82,29.66,19.69,29.66,14.54,0,19.39-12.88,19.39-29.1C493.78,626.72,488.65,614.66,474.11,614.66Zm102.8,1.81H565.83v55h10.82c15.09,0,21.32-10.68,21.32-28.55C598,627.14,592.16,616.47,576.91,616.47Zm102.14-1.67h-.43c-2.22,10.26-6,23.83-9.69,37.56h20.36C684.86,637.39,681.11,624.09,679.05,614.8Zm0,0h-.43c-2.22,10.26-6,23.83-9.69,37.56h20.36C684.86,637.39,681.11,624.09,679.05,614.8Zm-204.94-.14c-13.59,0-19.41,11.23-19.41,29,0,17.46,5.82,29.66,19.69,29.66,14.54,0,19.39-12.88,19.39-29.1C493.78,626.72,488.65,614.66,474.11,614.66Zm102.8,1.81H565.83v55h10.82c15.09,0,21.32-10.68,21.32-28.55C598,627.14,592.16,616.47,576.91,616.47Zm-102.8-1.81c-13.59,0-19.41,11.23-19.41,29,0,17.46,5.82,29.66,19.69,29.66,14.54,0,19.39-12.88,19.39-29.1C493.78,626.72,488.65,614.66,474.11,614.66Zm102.8,1.81H565.83v55h10.82c15.09,0,21.32-10.68,21.32-28.55C598,627.14,592.16,616.47,576.91,616.47Zm102.14-1.67h-.43c-2.22,10.26-6,23.83-9.69,37.56h20.36C684.86,637.39,681.11,624.09,679.05,614.8Zm0,0h-.43c-2.22,10.26-6,23.83-9.69,37.56h20.36C684.86,637.39,681.11,624.09,679.05,614.8Zm-204.94-.14c-13.59,0-19.41,11.23-19.41,29,0,17.46,5.82,29.66,19.69,29.66,14.54,0,19.39-12.88,19.39-29.1C493.78,626.72,488.65,614.66,474.11,614.66Zm102.8,1.81H565.83v55h10.82c15.09,0,21.32-10.68,21.32-28.55C598,627.14,592.16,616.47,576.91,616.47Zm-102.8-1.81c-13.59,0-19.41,11.23-19.41,29,0,17.46,5.82,29.66,19.69,29.66,14.54,0,19.39-12.88,19.39-29.1C493.78,626.72,488.65,614.66,474.11,614.66Zm102.8,1.81H565.83v55h10.82c15.09,0,21.32-10.68,21.32-28.55C598,627.14,592.16,616.47,576.91,616.47Zm102.14-1.67h-.43c-2.22,10.26-6,23.83-9.69,37.56h20.36C684.86,637.39,681.11,624.09,679.05,614.8Zm0,0h-.43c-2.22,10.26-6,23.83-9.69,37.56h20.36C684.86,637.39,681.11,624.09,679.05,614.8Zm-204.94-.14c-13.59,0-19.41,11.23-19.41,29,0,17.46,5.82,29.66,19.69,29.66,14.54,0,19.39-12.88,19.39-29.1C493.78,626.72,488.65,614.66,474.11,614.66Zm102.8,1.81H565.83v55h10.82c15.09,0,21.32-10.68,21.32-28.55C598,627.14,592.16,616.47,576.91,616.47Zm-102.8-1.81c-13.59,0-19.41,11.23-19.41,29,0,17.46,5.82,29.66,19.69,29.66,14.54,0,19.39-12.88,19.39-29.1C493.78,626.72,488.65,614.66,474.11,614.66Zm102.8,1.81H565.83v55h10.82c15.09,0,21.32-10.68,21.32-28.55C598,627.14,592.16,616.47,576.91,616.47Zm102.14-1.67h-.43c-2.22,10.26-6,23.83-9.69,37.56h20.36C684.86,637.39,681.11,624.09,679.05,614.8Zm0,0h-.43c-2.22,10.26-6,23.83-9.69,37.56h20.36C684.86,637.39,681.11,624.09,679.05,614.8Zm-204.94-.14c-13.59,0-19.41,11.23-19.41,29,0,17.46,5.82,29.66,19.69,29.66,14.54,0,19.39-12.88,19.39-29.1C493.78,626.72,488.65,614.66,474.11,614.66Zm102.8,1.81H565.83v55h10.82c15.09,0,21.32-10.68,21.32-28.55C598,627.14,592.16,616.47,576.91,616.47Zm-102.8-1.81c-13.59,0-19.41,11.23-19.41,29,0,17.46,5.82,29.66,19.69,29.66,14.54,0,19.39-12.88,19.39-29.1C493.78,626.72,488.65,614.66,474.11,614.66Zm102.8,1.81H565.83v55h10.82c15.09,0,21.32-10.68,21.32-28.55C598,627.14,592.16,616.47,576.91,616.47Zm102.14-1.67h-.43c-2.22,10.26-6,23.83-9.69,37.56h20.36C684.86,637.39,681.11,624.09,679.05,614.8Zm-102.14,1.67H565.83v55h10.82c15.09,0,21.32-10.68,21.32-28.55C598,627.14,592.16,616.47,576.91,616.47Zm102.14-1.67h-.43c-2.22,10.26-6,23.83-9.69,37.56h20.36C684.86,637.39,681.11,624.09,679.05,614.8Zm-204.94-.14c-13.59,0-19.41,11.23-19.41,29,0,17.46,5.82,29.66,19.69,29.66,14.54,0,19.39-12.88,19.39-29.1C493.78,626.72,488.65,614.66,474.11,614.66Zm0,0c-13.59,0-19.41,11.23-19.41,29,0,17.46,5.82,29.66,19.69,29.66,14.54,0,19.39-12.88,19.39-29.1C493.78,626.72,488.65,614.66,474.11,614.66Zm102.8,1.81H565.83v55h10.82c15.09,0,21.32-10.68,21.32-28.55C598,627.14,592.16,616.47,576.91,616.47Zm102.14-1.67h-.43c-2.22,10.26-6,23.83-9.69,37.56h20.36C684.86,637.39,681.11,624.09,679.05,614.8Zm-102.14,1.67H565.83v55h10.82c15.09,0,21.32-10.68,21.32-28.55C598,627.14,592.16,616.47,576.91,616.47Zm102.14-1.67h-.43c-2.22,10.26-6,23.83-9.69,37.56h20.36C684.86,637.39,681.11,624.09,679.05,614.8Zm-204.94-.14c-13.59,0-19.41,11.23-19.41,29,0,17.46,5.82,29.66,19.69,29.66,14.54,0,19.39-12.88,19.39-29.1C493.78,626.72,488.65,614.66,474.11,614.66ZM778.47,158c-43.07,0-110.16,17.45-138.36,45.66A155.15,155.15,0,0,0,612.52,241l-18.33-6.66A78.79,78.79,0,0,0,493.1,281.47l-12.31,33.84-16.53,45.44A31.4,31.4,0,0,0,483,401l31.23,11.36L489,481.81a14.79,14.79,0,0,0,5.86,17.43,1.25,1.25,0,0,0,.18.11H467.8a36.32,36.32,0,0,1-2.19-12.5,36.94,36.94,0,0,1,2.24-12.73l17.59-48.33-10.11-3.68a53.93,53.93,0,0,1-32.19-69.05l16.7-45.93a79.14,79.14,0,0,0-17.87-2H429.31a155.35,155.35,0,0,0-45.42-101.43C355.66,175.45,288.57,158,245.53,158c-86.12,0-184,69.8-184,155.92V831.23a34.78,34.78,0,0,0,69.56,0V306.16c0-47.69,66.77-86.35,114.45-86.35,23.86,0,73.53,9.66,89.18,25.29a85.94,85.94,0,0,1,25.26,60H347.58A78.87,78.87,0,0,0,268.72,384v84.36a31.36,31.36,0,0,0,26.71,31H243.19a36.79,36.79,0,0,0-36.79,36.79V829.22A36.79,36.79,0,0,0,243.19,866H780.81a36.79,36.79,0,0,0,36.79-36.78V536.14a36.79,36.79,0,0,0-36.79-36.79H611.06l16.62-45.7,33.25,12.1c1,.36,2,.68,3.07.94A31.42,31.42,0,0,0,701.19,447L730,367.72a78.87,78.87,0,0,0-47.15-101.1l-7.78-2.83a87.2,87.2,0,0,1,14.19-18.69c15.64-15.63,65.32-25.29,89.18-25.29,47.7,0,114.45,38.66,114.45,86.35V831.23A34.78,34.78,0,0,0,927.7,866h0a34.77,34.77,0,0,0,34.77-34.77V313.92C962.48,227.8,864.57,158,778.47,158ZM323.37,774.52a16,16,0,1,1,16-16A16,16,0,0,1,323.37,774.52Zm64.54,0a16,16,0,1,1,16-16A16,16,0,0,1,387.91,774.52ZM410.5,691.7H383.62V660.54c0-14.84.42-34.09.83-45.46h-.83c-3.88,20.5-10.4,48.77-17.32,76.62H343.86c-5.41-27-11.79-55.42-15.39-76.62h-1c.83,11.23,1.4,29.93,1.4,46.28V691.7H304V596.24h40.31c4.72,19.39,10.11,47.38,12.33,61.51H357c2.49-15.37,8.87-40.73,14.41-61.51H410.5Zm42,82.82a16,16,0,1,1,16-16A16,16,0,0,1,452.46,774.52ZM425.89,644c0-27.44,17-49.61,49.05-49.61,30.06,0,47.53,20.93,47.53,49.47,0,27-16.22,49.61-48.93,49.61C441.4,693.51,425.89,671.06,425.89,644ZM517,774.52a16,16,0,1,1,16-16A16,16,0,0,1,517,774.52Zm64.54,0a16,16,0,1,1,16-16A16,16,0,0,1,581.54,774.52Zm129.09,0a16,16,0,1,1,16-16A16,16,0,0,1,710.63,774.52ZM661.72,596.24h36.17l31.3,95.46H700l-5.83-18.56H664.21l-5.54,18.56H631.51ZM646.09,742.52a16,16,0,1,1-16,16A16,16,0,0,1,646.09,742.52Zm-19.28-99.59c0,27.58-17,48.77-48.37,48.77h-40.6V596.24h41C609.2,596.24,626.81,615.5,626.81,642.93Zm52.24-28.13h-.43c-2.22,10.26-6,23.83-9.69,37.56h20.36C684.86,637.39,681.11,624.09,679.05,614.8Zm-113.22,1.67v55h10.82c15.09,0,21.32-10.68,21.32-28.55,0-15.79-5.81-26.46-21.06-26.46Zm-91.72-1.81c-13.59,0-19.41,11.23-19.41,29,0,17.46,5.82,29.66,19.69,29.66,14.54,0,19.39-12.88,19.39-29.1C493.78,626.72,488.65,614.66,474.11,614.66Zm0,0c-13.59,0-19.41,11.23-19.41,29,0,17.46,5.82,29.66,19.69,29.66,14.54,0,19.39-12.88,19.39-29.1C493.78,626.72,488.65,614.66,474.11,614.66Zm204.94.14h-.43c-2.22,10.26-6,23.83-9.69,37.56h20.36C684.86,637.39,681.11,624.09,679.05,614.8Zm-102.14,1.67H565.83v55h10.82c15.09,0,21.32-10.68,21.32-28.55C598,627.14,592.16,616.47,576.91,616.47Zm102.14-1.67h-.43c-2.22,10.26-6,23.83-9.69,37.56h20.36C684.86,637.39,681.11,624.09,679.05,614.8Zm-102.14,1.67H565.83v55h10.82c15.09,0,21.32-10.68,21.32-28.55C598,627.14,592.16,616.47,576.91,616.47Zm-102.8-1.81c-13.59,0-19.41,11.23-19.41,29,0,17.46,5.82,29.66,19.69,29.66,14.54,0,19.39-12.88,19.39-29.1C493.78,626.72,488.65,614.66,474.11,614.66Zm0,0c-13.59,0-19.41,11.23-19.41,29,0,17.46,5.82,29.66,19.69,29.66,14.54,0,19.39-12.88,19.39-29.1C493.78,626.72,488.65,614.66,474.11,614.66Zm204.94.14h-.43c-2.22,10.26-6,23.83-9.69,37.56h20.36C684.86,637.39,681.11,624.09,679.05,614.8Zm-102.14,1.67H565.83v55h10.82c15.09,0,21.32-10.68,21.32-28.55C598,627.14,592.16,616.47,576.91,616.47Zm102.14-1.67h-.43c-2.22,10.26-6,23.83-9.69,37.56h20.36C684.86,637.39,681.11,624.09,679.05,614.8Zm-102.14,1.67H565.83v55h10.82c15.09,0,21.32-10.68,21.32-28.55C598,627.14,592.16,616.47,576.91,616.47Zm-102.8-1.81c-13.59,0-19.41,11.23-19.41,29,0,17.46,5.82,29.66,19.69,29.66,14.54,0,19.39-12.88,19.39-29.1C493.78,626.72,488.65,614.66,474.11,614.66Zm102.8,1.81H565.83v55h10.82c15.09,0,21.32-10.68,21.32-28.55C598,627.14,592.16,616.47,576.91,616.47Zm-102.8-1.81c-13.59,0-19.41,11.23-19.41,29,0,17.46,5.82,29.66,19.69,29.66,14.54,0,19.39-12.88,19.39-29.1C493.78,626.72,488.65,614.66,474.11,614.66Zm204.94.14h-.43c-2.22,10.26-6,23.83-9.69,37.56h20.36C684.86,637.39,681.11,624.09,679.05,614.8Zm0,0h-.43c-2.22,10.26-6,23.83-9.69,37.56h20.36C684.86,637.39,681.11,624.09,679.05,614.8Zm-102.14,1.67H565.83v55h10.82c15.09,0,21.32-10.68,21.32-28.55C598,627.14,592.16,616.47,576.91,616.47Zm-102.8-1.81c-13.59,0-19.41,11.23-19.41,29,0,17.46,5.82,29.66,19.69,29.66,14.54,0,19.39-12.88,19.39-29.1C493.78,626.72,488.65,614.66,474.11,614.66Zm102.8,1.81H565.83v55h10.82c15.09,0,21.32-10.68,21.32-28.55C598,627.14,592.16,616.47,576.91,616.47Zm-102.8-1.81c-13.59,0-19.41,11.23-19.41,29,0,17.46,5.82,29.66,19.69,29.66,14.54,0,19.39-12.88,19.39-29.1C493.78,626.72,488.65,614.66,474.11,614.66Zm204.94.14h-.43c-2.22,10.26-6,23.83-9.69,37.56h20.36C684.86,637.39,681.11,624.09,679.05,614.8Zm0,0h-.43c-2.22,10.26-6,23.83-9.69,37.56h20.36C684.86,637.39,681.11,624.09,679.05,614.8Zm-102.14,1.67H565.83v55h10.82c15.09,0,21.32-10.68,21.32-28.55C598,627.14,592.16,616.47,576.91,616.47Zm-102.8-1.81c-13.59,0-19.41,11.23-19.41,29,0,17.46,5.82,29.66,19.69,29.66,14.54,0,19.39-12.88,19.39-29.1C493.78,626.72,488.65,614.66,474.11,614.66Zm102.8,1.81H565.83v55h10.82c15.09,0,21.32-10.68,21.32-28.55C598,627.14,592.16,616.47,576.91,616.47Zm-102.8-1.81c-13.59,0-19.41,11.23-19.41,29,0,17.46,5.82,29.66,19.69,29.66,14.54,0,19.39-12.88,19.39-29.1C493.78,626.72,488.65,614.66,474.11,614.66Zm204.94.14h-.43c-2.22,10.26-6,23.83-9.69,37.56h20.36C684.86,637.39,681.11,624.09,679.05,614.8Zm0,0h-.43c-2.22,10.26-6,23.83-9.69,37.56h20.36C684.86,637.39,681.11,624.09,679.05,614.8Zm-102.14,1.67H565.83v55h10.82c15.09,0,21.32-10.68,21.32-28.55C598,627.14,592.16,616.47,576.91,616.47Zm-102.8-1.81c-13.59,0-19.41,11.23-19.41,29,0,17.46,5.82,29.66,19.69,29.66,14.54,0,19.39-12.88,19.39-29.1C493.78,626.72,488.65,614.66,474.11,614.66Zm102.8,1.81H565.83v55h10.82c15.09,0,21.32-10.68,21.32-28.55C598,627.14,592.16,616.47,576.91,616.47Zm-102.8-1.81c-13.59,0-19.41,11.23-19.41,29,0,17.46,5.82,29.66,19.69,29.66,14.54,0,19.39-12.88,19.39-29.1C493.78,626.72,488.65,614.66,474.11,614.66Zm204.94.14h-.43c-2.22,10.26-6,23.83-9.69,37.56h20.36C684.86,637.39,681.11,624.09,679.05,614.8Zm0,0h-.43c-2.22,10.26-6,23.83-9.69,37.56h20.36C684.86,637.39,681.11,624.09,679.05,614.8Zm-102.14,1.67H565.83v55h10.82c15.09,0,21.32-10.68,21.32-28.55C598,627.14,592.16,616.47,576.91,616.47Zm-102.8-1.81c-13.59,0-19.41,11.23-19.41,29,0,17.46,5.82,29.66,19.69,29.66,14.54,0,19.39-12.88,19.39-29.1C493.78,626.72,488.65,614.66,474.11,614.66Zm102.8,1.81H565.83v55h10.82c15.09,0,21.32-10.68,21.32-28.55C598,627.14,592.16,616.47,576.91,616.47Zm-102.8-1.81c-13.59,0-19.41,11.23-19.41,29,0,17.46,5.82,29.66,19.69,29.66,14.54,0,19.39-12.88,19.39-29.1C493.78,626.72,488.65,614.66,474.11,614.66Zm204.94.14h-.43c-2.22,10.26-6,23.83-9.69,37.56h20.36C684.86,637.39,681.11,624.09,679.05,614.8Zm0,0h-.43c-2.22,10.26-6,23.83-9.69,37.56h20.36C684.86,637.39,681.11,624.09,679.05,614.8Zm-102.14,1.67H565.83v55h10.82c15.09,0,21.32-10.68,21.32-28.55C598,627.14,592.16,616.47,576.91,616.47Zm-102.8-1.81c-13.59,0-19.41,11.23-19.41,29,0,17.46,5.82,29.66,19.69,29.66,14.54,0,19.39-12.88,19.39-29.1C493.78,626.72,488.65,614.66,474.11,614.66Zm102.8,1.81H565.83v55h10.82c15.09,0,21.32-10.68,21.32-28.55C598,627.14,592.16,616.47,576.91,616.47Zm-102.8-1.81c-13.59,0-19.41,11.23-19.41,29,0,17.46,5.82,29.66,19.69,29.66,14.54,0,19.39-12.88,19.39-29.1C493.78,626.72,488.65,614.66,474.11,614.66Zm204.94.14h-.43c-2.22,10.26-6,23.83-9.69,37.56h20.36C684.86,637.39,681.11,624.09,679.05,614.8Zm0,0h-.43c-2.22,10.26-6,23.83-9.69,37.56h20.36C684.86,637.39,681.11,624.09,679.05,614.8Zm-102.14,1.67H565.83v55h10.82c15.09,0,21.32-10.68,21.32-28.55C598,627.14,592.16,616.47,576.91,616.47Zm-102.8-1.81c-13.59,0-19.41,11.23-19.41,29,0,17.46,5.82,29.66,19.69,29.66,14.54,0,19.39-12.88,19.39-29.1C493.78,626.72,488.65,614.66,474.11,614.66Zm102.8,1.81H565.83v55h10.82c15.09,0,21.32-10.68,21.32-28.55C598,627.14,592.16,616.47,576.91,616.47Zm-102.8-1.81c-13.59,0-19.41,11.23-19.41,29,0,17.46,5.82,29.66,19.69,29.66,14.54,0,19.39-12.88,19.39-29.1C493.78,626.72,488.65,614.66,474.11,614.66Zm204.94.14h-.43c-2.22,10.26-6,23.83-9.69,37.56h20.36C684.86,637.39,681.11,624.09,679.05,614.8Zm0,0h-.43c-2.22,10.26-6,23.83-9.69,37.56h20.36C684.86,637.39,681.11,624.09,679.05,614.8Zm-102.14,1.67H565.83v55h10.82c15.09,0,21.32-10.68,21.32-28.55C598,627.14,592.16,616.47,576.91,616.47Zm-102.8-1.81c-13.59,0-19.41,11.23-19.41,29,0,17.46,5.82,29.66,19.69,29.66,14.54,0,19.39-12.88,19.39-29.1C493.78,626.72,488.65,614.66,474.11,614.66Zm102.8,1.81H565.83v55h10.82c15.09,0,21.32-10.68,21.32-28.55C598,627.14,592.16,616.47,576.91,616.47Zm-102.8-1.81c-13.59,0-19.41,11.23-19.41,29,0,17.46,5.82,29.66,19.69,29.66,14.54,0,19.39-12.88,19.39-29.1C493.78,626.72,488.65,614.66,474.11,614.66Zm204.94.14h-.43c-2.22,10.26-6,23.83-9.69,37.56h20.36C684.86,637.39,681.11,624.09,679.05,614.8Zm0,0h-.43c-2.22,10.26-6,23.83-9.69,37.56h20.36C684.86,637.39,681.11,624.09,679.05,614.8Zm-102.14,1.67H565.83v55h10.82c15.09,0,21.32-10.68,21.32-28.55C598,627.14,592.16,616.47,576.91,616.47Zm-102.8-1.81c-13.59,0-19.41,11.23-19.41,29,0,17.46,5.82,29.66,19.69,29.66,14.54,0,19.39-12.88,19.39-29.1C493.78,626.72,488.65,614.66,474.11,614.66Zm0,0c-13.59,0-19.41,11.23-19.41,29,0,17.46,5.82,29.66,19.69,29.66,14.54,0,19.39-12.88,19.39-29.1C493.78,626.72,488.65,614.66,474.11,614.66Zm0,0c-13.59,0-19.41,11.23-19.41,29,0,17.46,5.82,29.66,19.69,29.66,14.54,0,19.39-12.88,19.39-29.1C493.78,626.72,488.65,614.66,474.11,614.66Z"/><path d="M512.32,533h-.64l.51-.08Z"/><path class="cls-1" d="M512.19,532.92l-.51.08h.64Zm0,0-.51.08h.64Z"/><path d="M474.11,614.66c-13.59,0-19.41,11.23-19.41,29,0,17.46,5.82,29.66,19.69,29.66,14.54,0,19.39-12.88,19.39-29.1C493.78,626.72,488.65,614.66,474.11,614.66Zm0,0c-13.59,0-19.41,11.23-19.41,29,0,17.46,5.82,29.66,19.69,29.66,14.54,0,19.39-12.88,19.39-29.1C493.78,626.72,488.65,614.66,474.11,614.66Zm0,0c-13.59,0-19.41,11.23-19.41,29,0,17.46,5.82,29.66,19.69,29.66,14.54,0,19.39-12.88,19.39-29.1C493.78,626.72,488.65,614.66,474.11,614.66Zm102.8,1.81H565.83v55h10.82c15.09,0,21.32-10.68,21.32-28.55C598,627.14,592.16,616.47,576.91,616.47Zm102.14-1.67h-.43c-2.22,10.26-6,23.83-9.69,37.56h20.36C684.86,637.39,681.11,624.09,679.05,614.8Zm-102.14,1.67H565.83v55h10.82c15.09,0,21.32-10.68,21.32-28.55C598,627.14,592.16,616.47,576.91,616.47Zm102.14-1.67h-.43c-2.22,10.26-6,23.83-9.69,37.56h20.36C684.86,637.39,681.11,624.09,679.05,614.8Zm-204.94-.14c-13.59,0-19.41,11.23-19.41,29,0,17.46,5.82,29.66,19.69,29.66,14.54,0,19.39-12.88,19.39-29.1C493.78,626.72,488.65,614.66,474.11,614.66Zm0,0c-13.59,0-19.41,11.23-19.41,29,0,17.46,5.82,29.66,19.69,29.66,14.54,0,19.39-12.88,19.39-29.1C493.78,626.72,488.65,614.66,474.11,614.66Zm102.8,1.81H565.83v55h10.82c15.09,0,21.32-10.68,21.32-28.55C598,627.14,592.16,616.47,576.91,616.47Zm102.14-1.67h-.43c-2.22,10.26-6,23.83-9.69,37.56h20.36C684.86,637.39,681.11,624.09,679.05,614.8Zm-102.14,1.67H565.83v55h10.82c15.09,0,21.32-10.68,21.32-28.55C598,627.14,592.16,616.47,576.91,616.47Zm102.14-1.67h-.43c-2.22,10.26-6,23.83-9.69,37.56h20.36C684.86,637.39,681.11,624.09,679.05,614.8Zm-204.94-.14c-13.59,0-19.41,11.23-19.41,29,0,17.46,5.82,29.66,19.69,29.66,14.54,0,19.39-12.88,19.39-29.1C493.78,626.72,488.65,614.66,474.11,614.66Zm0,0c-13.59,0-19.41,11.23-19.41,29,0,17.46,5.82,29.66,19.69,29.66,14.54,0,19.39-12.88,19.39-29.1C493.78,626.72,488.65,614.66,474.11,614.66Zm102.8,1.81H565.83v55h10.82c15.09,0,21.32-10.68,21.32-28.55C598,627.14,592.16,616.47,576.91,616.47Zm102.14-1.67h-.43c-2.22,10.26-6,23.83-9.69,37.56h20.36C684.86,637.39,681.11,624.09,679.05,614.8Zm-102.14,1.67H565.83v55h10.82c15.09,0,21.32-10.68,21.32-28.55C598,627.14,592.16,616.47,576.91,616.47Zm102.14-1.67h-.43c-2.22,10.26-6,23.83-9.69,37.56h20.36C684.86,637.39,681.11,624.09,679.05,614.8Zm-204.94-.14c-13.59,0-19.41,11.23-19.41,29,0,17.46,5.82,29.66,19.69,29.66,14.54,0,19.39-12.88,19.39-29.1C493.78,626.72,488.65,614.66,474.11,614.66Zm0,0c-13.59,0-19.41,11.23-19.41,29,0,17.46,5.82,29.66,19.69,29.66,14.54,0,19.39-12.88,19.39-29.1C493.78,626.72,488.65,614.66,474.11,614.66Zm102.8,1.81H565.83v55h10.82c15.09,0,21.32-10.68,21.32-28.55C598,627.14,592.16,616.47,576.91,616.47Zm102.14-1.67h-.43c-2.22,10.26-6,23.83-9.69,37.56h20.36C684.86,637.39,681.11,624.09,679.05,614.8Zm-102.14,1.67H565.83v55h10.82c15.09,0,21.32-10.68,21.32-28.55C598,627.14,592.16,616.47,576.91,616.47Zm102.14-1.67h-.43c-2.22,10.26-6,23.83-9.69,37.56h20.36C684.86,637.39,681.11,624.09,679.05,614.8Zm-204.94-.14c-13.59,0-19.41,11.23-19.41,29,0,17.46,5.82,29.66,19.69,29.66,14.54,0,19.39-12.88,19.39-29.1C493.78,626.72,488.65,614.66,474.11,614.66Zm0,0c-13.59,0-19.41,11.23-19.41,29,0,17.46,5.82,29.66,19.69,29.66,14.54,0,19.39-12.88,19.39-29.1C493.78,626.72,488.65,614.66,474.11,614.66Zm102.8,1.81H565.83v55h10.82c15.09,0,21.32-10.68,21.32-28.55C598,627.14,592.16,616.47,576.91,616.47Zm102.14-1.67h-.43c-2.22,10.26-6,23.83-9.69,37.56h20.36C684.86,637.39,681.11,624.09,679.05,614.8Zm-102.14,1.67H565.83v55h10.82c15.09,0,21.32-10.68,21.32-28.55C598,627.14,592.16,616.47,576.91,616.47Zm102.14-1.67h-.43c-2.22,10.26-6,23.83-9.69,37.56h20.36C684.86,637.39,681.11,624.09,679.05,614.8Zm-204.94-.14c-13.59,0-19.41,11.23-19.41,29,0,17.46,5.82,29.66,19.69,29.66,14.54,0,19.39-12.88,19.39-29.1C493.78,626.72,488.65,614.66,474.11,614.66Zm0,0c-13.59,0-19.41,11.23-19.41,29,0,17.46,5.82,29.66,19.69,29.66,14.54,0,19.39-12.88,19.39-29.1C493.78,626.72,488.65,614.66,474.11,614.66Zm102.8,1.81H565.83v55h10.82c15.09,0,21.32-10.68,21.32-28.55C598,627.14,592.16,616.47,576.91,616.47Zm102.14-1.67h-.43c-2.22,10.26-6,23.83-9.69,37.56h20.36C684.86,637.39,681.11,624.09,679.05,614.8Zm-102.14,1.67H565.83v55h10.82c15.09,0,21.32-10.68,21.32-28.55C598,627.14,592.16,616.47,576.91,616.47Zm102.14-1.67h-.43c-2.22,10.26-6,23.83-9.69,37.56h20.36C684.86,637.39,681.11,624.09,679.05,614.8Zm-204.94-.14c-13.59,0-19.41,11.23-19.41,29,0,17.46,5.82,29.66,19.69,29.66,14.54,0,19.39-12.88,19.39-29.1C493.78,626.72,488.65,614.66,474.11,614.66Zm0,0c-13.59,0-19.41,11.23-19.41,29,0,17.46,5.82,29.66,19.69,29.66,14.54,0,19.39-12.88,19.39-29.1C493.78,626.72,488.65,614.66,474.11,614.66Zm102.8,1.81H565.83v55h10.82c15.09,0,21.32-10.68,21.32-28.55C598,627.14,592.16,616.47,576.91,616.47Zm102.14-1.67h-.43c-2.22,10.26-6,23.83-9.69,37.56h20.36C684.86,637.39,681.11,624.09,679.05,614.8Zm-102.14,1.67H565.83v55h10.82c15.09,0,21.32-10.68,21.32-28.55C598,627.14,592.16,616.47,576.91,616.47Zm102.14-1.67h-.43c-2.22,10.26-6,23.83-9.69,37.56h20.36C684.86,637.39,681.11,624.09,679.05,614.8Zm-204.94-.14c-13.59,0-19.41,11.23-19.41,29,0,17.46,5.82,29.66,19.69,29.66,14.54,0,19.39-12.88,19.39-29.1C493.78,626.72,488.65,614.66,474.11,614.66Zm0,0c-13.59,0-19.41,11.23-19.41,29,0,17.46,5.82,29.66,19.69,29.66,14.54,0,19.39-12.88,19.39-29.1C493.78,626.72,488.65,614.66,474.11,614.66Zm102.8,1.81H565.83v55h10.82c15.09,0,21.32-10.68,21.32-28.55C598,627.14,592.16,616.47,576.91,616.47Zm102.14-1.67h-.43c-2.22,10.26-6,23.83-9.69,37.56h20.36C684.86,637.39,681.11,624.09,679.05,614.8Zm-102.14,1.67H565.83v55h10.82c15.09,0,21.32-10.68,21.32-28.55C598,627.14,592.16,616.47,576.91,616.47Zm102.14-1.67h-.43c-2.22,10.26-6,23.83-9.69,37.56h20.36C684.86,637.39,681.11,624.09,679.05,614.8Zm-204.94-.14c-13.59,0-19.41,11.23-19.41,29,0,17.46,5.82,29.66,19.69,29.66,14.54,0,19.39-12.88,19.39-29.1C493.78,626.72,488.65,614.66,474.11,614.66Zm0,0c-13.59,0-19.41,11.23-19.41,29,0,17.46,5.82,29.66,19.69,29.66,14.54,0,19.39-12.88,19.39-29.1C493.78,626.72,488.65,614.66,474.11,614.66Zm102.8,1.81H565.83v55h10.82c15.09,0,21.32-10.68,21.32-28.55C598,627.14,592.16,616.47,576.91,616.47Zm102.14-1.67h-.43c-2.22,10.26-6,23.83-9.69,37.56h20.36C684.86,637.39,681.11,624.09,679.05,614.8Zm-102.14,1.67H565.83v55h10.82c15.09,0,21.32-10.68,21.32-28.55C598,627.14,592.16,616.47,576.91,616.47Zm102.14-1.67h-.43c-2.22,10.26-6,23.83-9.69,37.56h20.36C684.86,637.39,681.11,624.09,679.05,614.8Zm-204.94-.14c-13.59,0-19.41,11.23-19.41,29,0,17.46,5.82,29.66,19.69,29.66,14.54,0,19.39-12.88,19.39-29.1C493.78,626.72,488.65,614.66,474.11,614.66Zm0,0c-13.59,0-19.41,11.23-19.41,29,0,17.46,5.82,29.66,19.69,29.66,14.54,0,19.39-12.88,19.39-29.1C493.78,626.72,488.65,614.66,474.11,614.66Zm102.8,1.81H565.83v55h10.82c15.09,0,21.32-10.68,21.32-28.55C598,627.14,592.16,616.47,576.91,616.47Zm102.14-1.67h-.43c-2.22,10.26-6,23.83-9.69,37.56h20.36C684.86,637.39,681.11,624.09,679.05,614.8Zm-102.14,1.67H565.83v55h10.82c15.09,0,21.32-10.68,21.32-28.55C598,627.14,592.16,616.47,576.91,616.47Zm102.14-1.67h-.43c-2.22,10.26-6,23.83-9.69,37.56h20.36C684.86,637.39,681.11,624.09,679.05,614.8Zm-204.94-.14c-13.59,0-19.41,11.23-19.41,29,0,17.46,5.82,29.66,19.69,29.66,14.54,0,19.39-12.88,19.39-29.1C493.78,626.72,488.65,614.66,474.11,614.66Zm0,0c-13.59,0-19.41,11.23-19.41,29,0,17.46,5.82,29.66,19.69,29.66,14.54,0,19.39-12.88,19.39-29.1C493.78,626.72,488.65,614.66,474.11,614.66Zm102.8,1.81H565.83v55h10.82c15.09,0,21.32-10.68,21.32-28.55C598,627.14,592.16,616.47,576.91,616.47Zm102.14-1.67h-.43c-2.22,10.26-6,23.83-9.69,37.56h20.36C684.86,637.39,681.11,624.09,679.05,614.8Zm-102.14,1.67H565.83v55h10.82c15.09,0,21.32-10.68,21.32-28.55C598,627.14,592.16,616.47,576.91,616.47Zm102.14-1.67h-.43c-2.22,10.26-6,23.83-9.69,37.56h20.36C684.86,637.39,681.11,624.09,679.05,614.8Zm-204.94-.14c-13.59,0-19.41,11.23-19.41,29,0,17.46,5.82,29.66,19.69,29.66,14.54,0,19.39-12.88,19.39-29.1C493.78,626.72,488.65,614.66,474.11,614.66Zm0,0c-13.59,0-19.41,11.23-19.41,29,0,17.46,5.82,29.66,19.69,29.66,14.54,0,19.39-12.88,19.39-29.1C493.78,626.72,488.65,614.66,474.11,614.66Zm102.8,1.81H565.83v55h10.82c15.09,0,21.32-10.68,21.32-28.55C598,627.14,592.16,616.47,576.91,616.47Zm102.14-1.67h-.43c-2.22,10.26-6,23.83-9.69,37.56h20.36C684.86,637.39,681.11,624.09,679.05,614.8Zm-102.14,1.67H565.83v55h10.82c15.09,0,21.32-10.68,21.32-28.55C598,627.14,592.16,616.47,576.91,616.47Zm102.14-1.67h-.43c-2.22,10.26-6,23.83-9.69,37.56h20.36C684.86,637.39,681.11,624.09,679.05,614.8Zm-204.94-.14c-13.59,0-19.41,11.23-19.41,29,0,17.46,5.82,29.66,19.69,29.66,14.54,0,19.39-12.88,19.39-29.1C493.78,626.72,488.65,614.66,474.11,614.66Zm0,0c-13.59,0-19.41,11.23-19.41,29,0,17.46,5.82,29.66,19.69,29.66,14.54,0,19.39-12.88,19.39-29.1C493.78,626.72,488.65,614.66,474.11,614.66Zm102.8,1.81H565.83v55h10.82c15.09,0,21.32-10.68,21.32-28.55C598,627.14,592.16,616.47,576.91,616.47Zm102.14-1.67h-.43c-2.22,10.26-6,23.83-9.69,37.56h20.36C684.86,637.39,681.11,624.09,679.05,614.8Zm-102.14,1.67H565.83v55h10.82c15.09,0,21.32-10.68,21.32-28.55C598,627.14,592.16,616.47,576.91,616.47Zm102.14-1.67h-.43c-2.22,10.26-6,23.83-9.69,37.56h20.36C684.86,637.39,681.11,624.09,679.05,614.8Zm-204.94-.14c-13.59,0-19.41,11.23-19.41,29,0,17.46,5.82,29.66,19.69,29.66,14.54,0,19.39-12.88,19.39-29.1C493.78,626.72,488.65,614.66,474.11,614.66Zm0,0c-13.59,0-19.41,11.23-19.41,29,0,17.46,5.82,29.66,19.69,29.66,14.54,0,19.39-12.88,19.39-29.1C493.78,626.72,488.65,614.66,474.11,614.66Zm102.8,1.81H565.83v55h10.82c15.09,0,21.32-10.68,21.32-28.55C598,627.14,592.16,616.47,576.91,616.47Zm102.14-1.67h-.43c-2.22,10.26-6,23.83-9.69,37.56h20.36C684.86,637.39,681.11,624.09,679.05,614.8Zm-102.14,1.67H565.83v55h10.82c15.09,0,21.32-10.68,21.32-28.55C598,627.14,592.16,616.47,576.91,616.47Zm102.14-1.67h-.43c-2.22,10.26-6,23.83-9.69,37.56h20.36C684.86,637.39,681.11,624.09,679.05,614.8Zm-204.94-.14c-13.59,0-19.41,11.23-19.41,29,0,17.46,5.82,29.66,19.69,29.66,14.54,0,19.39-12.88,19.39-29.1C493.78,626.72,488.65,614.66,474.11,614.66Zm0,0c-13.59,0-19.41,11.23-19.41,29,0,17.46,5.82,29.66,19.69,29.66,14.54,0,19.39-12.88,19.39-29.1C493.78,626.72,488.65,614.66,474.11,614.66Zm102.8,1.81H565.83v55h10.82c15.09,0,21.32-10.68,21.32-28.55C598,627.14,592.16,616.47,576.91,616.47Zm102.14-1.67h-.43c-2.22,10.26-6,23.83-9.69,37.56h20.36C684.86,637.39,681.11,624.09,679.05,614.8Zm-102.14,1.67H565.83v55h10.82c15.09,0,21.32-10.68,21.32-28.55C598,627.14,592.16,616.47,576.91,616.47Zm102.14-1.67h-.43c-2.22,10.26-6,23.83-9.69,37.56h20.36C684.86,637.39,681.11,624.09,679.05,614.8Zm-204.94-.14c-13.59,0-19.41,11.23-19.41,29,0,17.46,5.82,29.66,19.69,29.66,14.54,0,19.39-12.88,19.39-29.1C493.78,626.72,488.65,614.66,474.11,614.66Zm0,0c-13.59,0-19.41,11.23-19.41,29,0,17.46,5.82,29.66,19.69,29.66,14.54,0,19.39-12.88,19.39-29.1C493.78,626.72,488.65,614.66,474.11,614.66Zm102.8,1.81H565.83v55h10.82c15.09,0,21.32-10.68,21.32-28.55C598,627.14,592.16,616.47,576.91,616.47Zm102.14-1.67h-.43c-2.22,10.26-6,23.83-9.69,37.56h20.36C684.86,637.39,681.11,624.09,679.05,614.8Zm-102.14,1.67H565.83v55h10.82c15.09,0,21.32-10.68,21.32-28.55C598,627.14,592.16,616.47,576.91,616.47Zm102.14-1.67h-.43c-2.22,10.26-6,23.83-9.69,37.56h20.36C684.86,637.39,681.11,624.09,679.05,614.8Zm-204.94-.14c-13.59,0-19.41,11.23-19.41,29,0,17.46,5.82,29.66,19.69,29.66,14.54,0,19.39-12.88,19.39-29.1C493.78,626.72,488.65,614.66,474.11,614.66ZM778.47,158c-43.07,0-110.16,17.45-138.36,45.66A155.15,155.15,0,0,0,612.52,241l-18.33-6.66A78.79,78.79,0,0,0,493.1,281.47l-12.31,33.84-16.53,45.44A31.4,31.4,0,0,0,483,401l31.23,11.36L489,481.81a14.79,14.79,0,0,0,5.86,17.43,1.25,1.25,0,0,0,.18.11H467.8a36.32,36.32,0,0,1-2.19-12.5,36.94,36.94,0,0,1,2.24-12.73l17.59-48.33-10.11-3.68a53.93,53.93,0,0,1-32.19-69.05l16.7-45.93a79.14,79.14,0,0,0-17.87-2H429.31a155.35,155.35,0,0,0-45.42-101.43C355.66,175.45,288.57,158,245.53,158c-86.12,0-184,69.8-184,155.92V831.23a34.78,34.78,0,0,0,69.56,0V306.16c0-47.69,66.77-86.35,114.45-86.35,23.86,0,73.53,9.66,89.18,25.29a85.94,85.94,0,0,1,25.26,60H347.58A78.87,78.87,0,0,0,268.72,384v84.36a31.36,31.36,0,0,0,26.71,31H243.19a36.79,36.79,0,0,0-36.79,36.79V829.22A36.79,36.79,0,0,0,243.19,866H780.81a36.79,36.79,0,0,0,36.79-36.78V536.14a36.79,36.79,0,0,0-36.79-36.79H611.06l16.62-45.7,33.25,12.1c1,.36,2,.68,3.07.94A31.42,31.42,0,0,0,701.19,447L730,367.72a78.87,78.87,0,0,0-47.15-101.1l-7.78-2.83a87.2,87.2,0,0,1,14.19-18.69c15.64-15.63,65.32-25.29,89.18-25.29,47.7,0,114.45,38.66,114.45,86.35V831.23A34.78,34.78,0,0,0,927.7,866h0a34.77,34.77,0,0,0,34.77-34.77V313.92C962.48,227.8,864.57,158,778.47,158ZM516.71,491.89,542,422.44l52.46,19.1,5.54,2-20.32,55.8h-69A14.58,14.58,0,0,0,516.71,491.89ZM323.37,774.52a16,16,0,1,1,16-16A16,16,0,0,1,323.37,774.52Zm64.54,0a16,16,0,1,1,16-16A16,16,0,0,1,387.91,774.52ZM410.5,691.7H383.62V660.54c0-14.84.42-34.09.83-45.46h-.83c-3.88,20.5-10.4,48.77-17.32,76.62H343.86c-5.41-27-11.79-55.42-15.39-76.62h-1c.83,11.23,1.4,29.93,1.4,46.28V691.7H304V596.24h40.31c4.72,19.39,10.11,47.38,12.33,61.51H357c2.49-15.37,8.87-40.73,14.41-61.51H410.5Zm42,82.82a16,16,0,1,1,16-16A16,16,0,0,1,452.46,774.52ZM425.89,644c0-27.44,17-49.61,49.05-49.61,30.06,0,47.53,20.93,47.53,49.47,0,27-16.22,49.61-48.93,49.61C441.4,693.51,425.89,671.06,425.89,644ZM517,774.52a16,16,0,1,1,16-16A16,16,0,0,1,517,774.52Zm64.54,0a16,16,0,1,1,16-16A16,16,0,0,1,581.54,774.52Zm129.09,0a16,16,0,1,1,16-16A16,16,0,0,1,710.63,774.52ZM661.72,596.24h36.17l31.3,95.46H700l-5.83-18.56H664.21l-5.54,18.56H631.51ZM646.09,742.52a16,16,0,1,1-16,16A16,16,0,0,1,646.09,742.52Zm-19.28-99.59c0,27.58-17,48.77-48.37,48.77h-40.6V596.24h41C609.2,596.24,626.81,615.5,626.81,642.93Zm52.24-28.13h-.43c-2.22,10.26-6,23.83-9.69,37.56h20.36C684.86,637.39,681.11,624.09,679.05,614.8Zm-113.22,1.67v55h10.82c15.09,0,21.32-10.68,21.32-28.55,0-15.79-5.81-26.46-21.06-26.46Zm-91.72-1.81c-13.59,0-19.41,11.23-19.41,29,0,17.46,5.82,29.66,19.69,29.66,14.54,0,19.39-12.88,19.39-29.1C493.78,626.72,488.65,614.66,474.11,614.66Zm0,0c-13.59,0-19.41,11.23-19.41,29,0,17.46,5.82,29.66,19.69,29.66,14.54,0,19.39-12.88,19.39-29.1C493.78,626.72,488.65,614.66,474.11,614.66Zm204.94.14h-.43c-2.22,10.26-6,23.83-9.69,37.56h20.36C684.86,637.39,681.11,624.09,679.05,614.8Zm-102.14,1.67H565.83v55h10.82c15.09,0,21.32-10.68,21.32-28.55C598,627.14,592.16,616.47,576.91,616.47Zm102.14-1.67h-.43c-2.22,10.26-6,23.83-9.69,37.56h20.36C684.86,637.39,681.11,624.09,679.05,614.8Zm-102.14,1.67H565.83v55h10.82c15.09,0,21.32-10.68,21.32-28.55C598,627.14,592.16,616.47,576.91,616.47Zm-102.8-1.81c-13.59,0-19.41,11.23-19.41,29,0,17.46,5.82,29.66,19.69,29.66,14.54,0,19.39-12.88,19.39-29.1C493.78,626.72,488.65,614.66,474.11,614.66Zm0,0c-13.59,0-19.41,11.23-19.41,29,0,17.46,5.82,29.66,19.69,29.66,14.54,0,19.39-12.88,19.39-29.1C493.78,626.72,488.65,614.66,474.11,614.66Zm204.94.14h-.43c-2.22,10.26-6,23.83-9.69,37.56h20.36C684.86,637.39,681.11,624.09,679.05,614.8Zm-102.14,1.67H565.83v55h10.82c15.09,0,21.32-10.68,21.32-28.55C598,627.14,592.16,616.47,576.91,616.47Zm102.14-1.67h-.43c-2.22,10.26-6,23.83-9.69,37.56h20.36C684.86,637.39,681.11,624.09,679.05,614.8Zm-102.14,1.67H565.83v55h10.82c15.09,0,21.32-10.68,21.32-28.55C598,627.14,592.16,616.47,576.91,616.47Zm-102.8-1.81c-13.59,0-19.41,11.23-19.41,29,0,17.46,5.82,29.66,19.69,29.66,14.54,0,19.39-12.88,19.39-29.1C493.78,626.72,488.65,614.66,474.11,614.66Zm0,0c-13.59,0-19.41,11.23-19.41,29,0,17.46,5.82,29.66,19.69,29.66,14.54,0,19.39-12.88,19.39-29.1C493.78,626.72,488.65,614.66,474.11,614.66Zm204.94.14h-.43c-2.22,10.26-6,23.83-9.69,37.56h20.36C684.86,637.39,681.11,624.09,679.05,614.8Zm-102.14,1.67H565.83v55h10.82c15.09,0,21.32-10.68,21.32-28.55C598,627.14,592.16,616.47,576.91,616.47Zm102.14-1.67h-.43c-2.22,10.26-6,23.83-9.69,37.56h20.36C684.86,637.39,681.11,624.09,679.05,614.8Zm-102.14,1.67H565.83v55h10.82c15.09,0,21.32-10.68,21.32-28.55C598,627.14,592.16,616.47,576.91,616.47Zm-102.8-1.81c-13.59,0-19.41,11.23-19.41,29,0,17.46,5.82,29.66,19.69,29.66,14.54,0,19.39-12.88,19.39-29.1C493.78,626.72,488.65,614.66,474.11,614.66Zm0,0c-13.59,0-19.41,11.23-19.41,29,0,17.46,5.82,29.66,19.69,29.66,14.54,0,19.39-12.88,19.39-29.1C493.78,626.72,488.65,614.66,474.11,614.66Zm204.94.14h-.43c-2.22,10.26-6,23.83-9.69,37.56h20.36C684.86,637.39,681.11,624.09,679.05,614.8Zm-102.14,1.67H565.83v55h10.82c15.09,0,21.32-10.68,21.32-28.55C598,627.14,592.16,616.47,576.91,616.47Zm102.14-1.67h-.43c-2.22,10.26-6,23.83-9.69,37.56h20.36C684.86,637.39,681.11,624.09,679.05,614.8Zm-102.14,1.67H565.83v55h10.82c15.09,0,21.32-10.68,21.32-28.55C598,627.14,592.16,616.47,576.91,616.47Zm-102.8-1.81c-13.59,0-19.41,11.23-19.41,29,0,17.46,5.82,29.66,19.69,29.66,14.54,0,19.39-12.88,19.39-29.1C493.78,626.72,488.65,614.66,474.11,614.66Zm0,0c-13.59,0-19.41,11.23-19.41,29,0,17.46,5.82,29.66,19.69,29.66,14.54,0,19.39-12.88,19.39-29.1C493.78,626.72,488.65,614.66,474.11,614.66Zm204.94.14h-.43c-2.22,10.26-6,23.83-9.69,37.56h20.36C684.86,637.39,681.11,624.09,679.05,614.8Zm-102.14,1.67H565.83v55h10.82c15.09,0,21.32-10.68,21.32-28.55C598,627.14,592.16,616.47,576.91,616.47Zm102.14-1.67h-.43c-2.22,10.26-6,23.83-9.69,37.56h20.36C684.86,637.39,681.11,624.09,679.05,614.8Zm-102.14,1.67H565.83v55h10.82c15.09,0,21.32-10.68,21.32-28.55C598,627.14,592.16,616.47,576.91,616.47Zm-102.8-1.81c-13.59,0-19.41,11.23-19.41,29,0,17.46,5.82,29.66,19.69,29.66,14.54,0,19.39-12.88,19.39-29.1C493.78,626.72,488.65,614.66,474.11,614.66Zm0,0c-13.59,0-19.41,11.23-19.41,29,0,17.46,5.82,29.66,19.69,29.66,14.54,0,19.39-12.88,19.39-29.1C493.78,626.72,488.65,614.66,474.11,614.66Zm204.94.14h-.43c-2.22,10.26-6,23.83-9.69,37.56h20.36C684.86,637.39,681.11,624.09,679.05,614.8Zm-102.14,1.67H565.83v55h10.82c15.09,0,21.32-10.68,21.32-28.55C598,627.14,592.16,616.47,576.91,616.47Zm102.14-1.67h-.43c-2.22,10.26-6,23.83-9.69,37.56h20.36C684.86,637.39,681.11,624.09,679.05,614.8Zm-102.14,1.67H565.83v55h10.82c15.09,0,21.32-10.68,21.32-28.55C598,627.14,592.16,616.47,576.91,616.47Zm-102.8-1.81c-13.59,0-19.41,11.23-19.41,29,0,17.46,5.82,29.66,19.69,29.66,14.54,0,19.39-12.88,19.39-29.1C493.78,626.72,488.65,614.66,474.11,614.66Zm0,0c-13.59,0-19.41,11.23-19.41,29,0,17.46,5.82,29.66,19.69,29.66,14.54,0,19.39-12.88,19.39-29.1C493.78,626.72,488.65,614.66,474.11,614.66Zm204.94.14h-.43c-2.22,10.26-6,23.83-9.69,37.56h20.36C684.86,637.39,681.11,624.09,679.05,614.8Zm-102.14,1.67H565.83v55h10.82c15.09,0,21.32-10.68,21.32-28.55C598,627.14,592.16,616.47,576.91,616.47Zm102.14-1.67h-.43c-2.22,10.26-6,23.83-9.69,37.56h20.36C684.86,637.39,681.11,624.09,679.05,614.8Zm-102.14,1.67H565.83v55h10.82c15.09,0,21.32-10.68,21.32-28.55C598,627.14,592.16,616.47,576.91,616.47Zm-102.8-1.81c-13.59,0-19.41,11.23-19.41,29,0,17.46,5.82,29.66,19.69,29.66,14.54,0,19.39-12.88,19.39-29.1C493.78,626.72,488.65,614.66,474.11,614.66Zm0,0c-13.59,0-19.41,11.23-19.41,29,0,17.46,5.82,29.66,19.69,29.66,14.54,0,19.39-12.88,19.39-29.1C493.78,626.72,488.65,614.66,474.11,614.66Zm204.94.14h-.43c-2.22,10.26-6,23.83-9.69,37.56h20.36C684.86,637.39,681.11,624.09,679.05,614.8Zm-102.14,1.67H565.83v55h10.82c15.09,0,21.32-10.68,21.32-28.55C598,627.14,592.16,616.47,576.91,616.47Zm102.14-1.67h-.43c-2.22,10.26-6,23.83-9.69,37.56h20.36C684.86,637.39,681.11,624.09,679.05,614.8Zm-102.14,1.67H565.83v55h10.82c15.09,0,21.32-10.68,21.32-28.55C598,627.14,592.16,616.47,576.91,616.47Zm-102.8-1.81c-13.59,0-19.41,11.23-19.41,29,0,17.46,5.82,29.66,19.69,29.66,14.54,0,19.39-12.88,19.39-29.1C493.78,626.72,488.65,614.66,474.11,614.66Zm0,0c-13.59,0-19.41,11.23-19.41,29,0,17.46,5.82,29.66,19.69,29.66,14.54,0,19.39-12.88,19.39-29.1C493.78,626.72,488.65,614.66,474.11,614.66Zm204.94.14h-.43c-2.22,10.26-6,23.83-9.69,37.56h20.36C684.86,637.39,681.11,624.09,679.05,614.8Zm-102.14,1.67H565.83v55h10.82c15.09,0,21.32-10.68,21.32-28.55C598,627.14,592.16,616.47,576.91,616.47Zm102.14-1.67h-.43c-2.22,10.26-6,23.83-9.69,37.56h20.36C684.86,637.39,681.11,624.09,679.05,614.8Zm-102.14,1.67H565.83v55h10.82c15.09,0,21.32-10.68,21.32-28.55C598,627.14,592.16,616.47,576.91,616.47Zm-102.8-1.81c-13.59,0-19.41,11.23-19.41,29,0,17.46,5.82,29.66,19.69,29.66,14.54,0,19.39-12.88,19.39-29.1C493.78,626.72,488.65,614.66,474.11,614.66Zm0,0c-13.59,0-19.41,11.23-19.41,29,0,17.46,5.82,29.66,19.69,29.66,14.54,0,19.39-12.88,19.39-29.1C493.78,626.72,488.65,614.66,474.11,614.66Zm204.94.14h-.43c-2.22,10.26-6,23.83-9.69,37.56h20.36C684.86,637.39,681.11,624.09,679.05,614.8Zm-102.14,1.67H565.83v55h10.82c15.09,0,21.32-10.68,21.32-28.55C598,627.14,592.16,616.47,576.91,616.47Zm102.14-1.67h-.43c-2.22,10.26-6,23.83-9.69,37.56h20.36C684.86,637.39,681.11,624.09,679.05,614.8Zm-102.14,1.67H565.83v55h10.82c15.09,0,21.32-10.68,21.32-28.55C598,627.14,592.16,616.47,576.91,616.47Zm-102.8-1.81c-13.59,0-19.41,11.23-19.41,29,0,17.46,5.82,29.66,19.69,29.66,14.54,0,19.39-12.88,19.39-29.1C493.78,626.72,488.65,614.66,474.11,614.66Zm0,0c-13.59,0-19.41,11.23-19.41,29,0,17.46,5.82,29.66,19.69,29.66,14.54,0,19.39-12.88,19.39-29.1C493.78,626.72,488.65,614.66,474.11,614.66Zm204.94.14h-.43c-2.22,10.26-6,23.83-9.69,37.56h20.36C684.86,637.39,681.11,624.09,679.05,614.8Zm-102.14,1.67H565.83v55h10.82c15.09,0,21.32-10.68,21.32-28.55C598,627.14,592.16,616.47,576.91,616.47Zm102.14-1.67h-.43c-2.22,10.26-6,23.83-9.69,37.56h20.36C684.86,637.39,681.11,624.09,679.05,614.8Zm-102.14,1.67H565.83v55h10.82c15.09,0,21.32-10.68,21.32-28.55C598,627.14,592.16,616.47,576.91,616.47Zm-102.8-1.81c-13.59,0-19.41,11.23-19.41,29,0,17.46,5.82,29.66,19.69,29.66,14.54,0,19.39-12.88,19.39-29.1C493.78,626.72,488.65,614.66,474.11,614.66Zm0,0c-13.59,0-19.41,11.23-19.41,29,0,17.46,5.82,29.66,19.69,29.66,14.54,0,19.39-12.88,19.39-29.1C493.78,626.72,488.65,614.66,474.11,614.66Zm204.94.14h-.43c-2.22,10.26-6,23.83-9.69,37.56h20.36C684.86,637.39,681.11,624.09,679.05,614.8Zm-102.14,1.67H565.83v55h10.82c15.09,0,21.32-10.68,21.32-28.55C598,627.14,592.16,616.47,576.91,616.47Zm102.14-1.67h-.43c-2.22,10.26-6,23.83-9.69,37.56h20.36C684.86,637.39,681.11,624.09,679.05,614.8Zm-102.14,1.67H565.83v55h10.82c15.09,0,21.32-10.68,21.32-28.55C598,627.14,592.16,616.47,576.91,616.47Zm-102.8-1.81c-13.59,0-19.41,11.23-19.41,29,0,17.46,5.82,29.66,19.69,29.66,14.54,0,19.39-12.88,19.39-29.1C493.78,626.72,488.65,614.66,474.11,614.66Zm0,0c-13.59,0-19.41,11.23-19.41,29,0,17.46,5.82,29.66,19.69,29.66,14.54,0,19.39-12.88,19.39-29.1C493.78,626.72,488.65,614.66,474.11,614.66Zm204.94.14h-.43c-2.22,10.26-6,23.83-9.69,37.56h20.36C684.86,637.39,681.11,624.09,679.05,614.8Zm-102.14,1.67H565.83v55h10.82c15.09,0,21.32-10.68,21.32-28.55C598,627.14,592.16,616.47,576.91,616.47Zm102.14-1.67h-.43c-2.22,10.26-6,23.83-9.69,37.56h20.36C684.86,637.39,681.11,624.09,679.05,614.8Zm-102.14,1.67H565.83v55h10.82c15.09,0,21.32-10.68,21.32-28.55C598,627.14,592.16,616.47,576.91,616.47Zm-102.8-1.81c-13.59,0-19.41,11.23-19.41,29,0,17.46,5.82,29.66,19.69,29.66,14.54,0,19.39-12.88,19.39-29.1C493.78,626.72,488.65,614.66,474.11,614.66Zm0,0c-13.59,0-19.41,11.23-19.41,29,0,17.46,5.82,29.66,19.69,29.66,14.54,0,19.39-12.88,19.39-29.1C493.78,626.72,488.65,614.66,474.11,614.66Zm204.94.14h-.43c-2.22,10.26-6,23.83-9.69,37.56h20.36C684.86,637.39,681.11,624.09,679.05,614.8Zm-102.14,1.67H565.83v55h10.82c15.09,0,21.32-10.68,21.32-28.55C598,627.14,592.16,616.47,576.91,616.47Zm102.14-1.67h-.43c-2.22,10.26-6,23.83-9.69,37.56h20.36C684.86,637.39,681.11,624.09,679.05,614.8Zm-102.14,1.67H565.83v55h10.82c15.09,0,21.32-10.68,21.32-28.55C598,627.14,592.16,616.47,576.91,616.47Zm-102.8-1.81c-13.59,0-19.41,11.23-19.41,29,0,17.46,5.82,29.66,19.69,29.66,14.54,0,19.39-12.88,19.39-29.1C493.78,626.72,488.65,614.66,474.11,614.66Zm0,0c-13.59,0-19.41,11.23-19.41,29,0,17.46,5.82,29.66,19.69,29.66,14.54,0,19.39-12.88,19.39-29.1C493.78,626.72,488.65,614.66,474.11,614.66Zm204.94.14h-.43c-2.22,10.26-6,23.83-9.69,37.56h20.36C684.86,637.39,681.11,624.09,679.05,614.8Zm-102.14,1.67H565.83v55h10.82c15.09,0,21.32-10.68,21.32-28.55C598,627.14,592.16,616.47,576.91,616.47Zm102.14-1.67h-.43c-2.22,10.26-6,23.83-9.69,37.56h20.36C684.86,637.39,681.11,624.09,679.05,614.8Zm-102.14,1.67H565.83v55h10.82c15.09,0,21.32-10.68,21.32-28.55C598,627.14,592.16,616.47,576.91,616.47Zm-102.8-1.81c-13.59,0-19.41,11.23-19.41,29,0,17.46,5.82,29.66,19.69,29.66,14.54,0,19.39-12.88,19.39-29.1C493.78,626.72,488.65,614.66,474.11,614.66Zm0,0c-13.59,0-19.41,11.23-19.41,29,0,17.46,5.82,29.66,19.69,29.66,14.54,0,19.39-12.88,19.39-29.1C493.78,626.72,488.65,614.66,474.11,614.66Zm102.8,1.81H565.83v55h10.82c15.09,0,21.32-10.68,21.32-28.55C598,627.14,592.16,616.47,576.91,616.47Zm0,0H565.83v55h10.82c15.09,0,21.32-10.68,21.32-28.55C598,627.14,592.16,616.47,576.91,616.47Zm-102.8-1.81c-13.59,0-19.41,11.23-19.41,29,0,17.46,5.82,29.66,19.69,29.66,14.54,0,19.39-12.88,19.39-29.1C493.78,626.72,488.65,614.66,474.11,614.66Z"/><circle class="cls-1" cx="323.37" cy="758.52" r="16"/><circle class="cls-1" cx="387.91" cy="758.52" r="16"/><circle class="cls-1" cx="452.46" cy="758.52" r="16"/><circle class="cls-1" cx="517" cy="758.52" r="16"/><circle class="cls-1" cx="581.54" cy="758.52" r="16"/><circle class="cls-1" cx="646.09" cy="758.52" r="16"/><circle class="cls-1" cx="710.63" cy="758.52" r="16"/><path class="cls-1" d="M697.89,596.24H661.72L631.51,691.7h27.16l5.54-18.56h29.93L700,691.7h29.22Zm-29,56.12c3.74-13.73,7.47-27.3,9.69-37.56h.43c2.06,9.29,5.81,22.59,10.24,37.56Z"/><path class="cls-1" d="M578.85,596.24h-41V691.7h40.6c31.32,0,48.37-21.19,48.37-48.77C626.81,615.5,609.2,596.24,578.85,596.24Zm-2.2,75.24H565.83v-55h11.08c15.25,0,21.06,10.67,21.06,26.46C598,660.8,591.74,671.48,576.65,671.48Z"/><path class="cls-1" d="M474.94,594.43c-32,0-49.05,22.17-49.05,49.61,0,27,15.51,49.47,47.65,49.47,32.71,0,48.93-22.59,48.93-49.61C522.47,615.36,505,594.43,474.94,594.43Zm-.55,78.85c-13.87,0-19.69-12.2-19.69-29.66,0-17.73,5.82-29,19.41-29,14.54,0,19.67,12.06,19.67,29.52C493.78,660.4,488.93,673.28,474.39,673.28Z"/><path class="cls-1" d="M410.5,596.24V691.7H383.62V660.54c0-14.84.42-34.09.83-45.46h-.83c-3.88,20.5-10.4,48.77-17.32,76.62H343.86c-5.41-27-11.79-55.42-15.39-76.62h-1c.83,11.23,1.4,29.93,1.4,46.28V691.7H304V596.24h40.31c4.72,19.39,10.11,47.38,12.33,61.51H357c2.49-15.37,8.87-40.73,14.41-61.51Z"/></svg>